<svg width="23" height="24" viewBox="0 0 23 24" fill="none" xmlns="http://www.w3.org/2000/svg">
<path d="M15.0634 11.0351V11.4649C15.0634 13.4173 13.4807 15 11.5283 15C9.57593 15 7.99323 13.4173 7.99323 11.4649V11.0351C7.99323 9.08271 9.57593 7.5 11.5283 7.5C13.4807 7.5 15.0634 9.08271 15.0634 11.0351Z" stroke="#60778C" stroke-width="1.5"/>
<mask id="path-2-inside-1_841_811" fill="white">
<path fill-rule="evenodd" clip-rule="evenodd" d="M22.2626 11.25C20.6611 15.6265 16.4595 18.75 11.5283 18.75C6.59715 18.75 2.39554 15.6265 0.794067 11.25C2.39554 6.87353 6.59716 3.75 11.5283 3.75C16.4595 3.75 20.6611 6.87354 22.2626 11.25Z"/>
</mask>
<path d="M22.2626 11.25L23.6712 11.7655L23.8598 11.25L23.6712 10.7345L22.2626 11.25ZM0.794067 11.25L-0.614583 10.7345L-0.803206 11.25L-0.614583 11.7655L0.794067 11.25ZM20.8539 10.7345C19.4618 14.5387 15.8098 17.25 11.5283 17.25V20.25C17.1091 20.25 21.8603 16.7142 23.6712 11.7655L20.8539 10.7345ZM11.5283 17.25C7.24682 17.25 3.59478 14.5387 2.20272 10.7345L-0.614583 11.7655C1.1963 16.7142 5.94749 20.25 11.5283 20.25V17.25ZM2.20272 11.7655C3.59478 7.96128 7.24682 5.25 11.5283 5.25V2.25C5.94749 2.25 1.1963 5.78579 -0.614583 10.7345L2.20272 11.7655ZM11.5283 5.25C15.8098 5.25 19.4618 7.96128 20.8539 11.7655L23.6712 10.7345C21.8603 5.78579 17.1091 2.25 11.5283 2.25V5.25Z" fill="#60778C" mask="url(#path-2-inside-1_841_811)"/>
</svg>
